<svg id="Group_94" data-name="Group 94" xmlns="http://www.w3.org/2000/svg" width="960.718" height="204.855" viewBox="0 0 960.718 204.855">
  <path id="Path_22" data-name="Path 22" d="M6.794,347.761H69.156V417.2L84.8,431.167v25.217H181V432.719h72v11.289h28.535V376.1h59.624v81.65H360.97v-29.6h92.186v107.4H0v-98.1H6.794Z" transform="translate(0 -330.686)" fill="#84c6f7"/>
  <rect id="Rectangle_203" data-name="Rectangle 203" width="17.394" height="8.919" transform="translate(12.779 5.054)" fill="#84c6f7"/>
  <rect id="Rectangle_204" data-name="Rectangle 204" width="8.367" height="3.914" transform="translate(32.548 10.058)" fill="#84c6f7"/>
  <rect id="Rectangle_205" data-name="Rectangle 205" width="8.367" height="3.914" transform="translate(929.497 12.92)" fill="#84c6f7"/>
  <rect id="Rectangle_206" data-name="Rectangle 206" width="8.367" height="3.914" transform="translate(306.267 38.394)" fill="#84c6f7"/>
  <rect id="Rectangle_207" data-name="Rectangle 207" width="19.142" height="1.028" transform="translate(11.905 4.026)" fill="#84c6f7"/>
  <rect id="Rectangle_208" data-name="Rectangle 208" width="17.394" height="8.919" transform="translate(317.041 33.389)" fill="#84c6f7"/>
  <rect id="Rectangle_209" data-name="Rectangle 209" width="19.142" height="1.028" transform="translate(316.166 32.361)" fill="#84c6f7"/>
  <rect id="Rectangle_210" data-name="Rectangle 210" width="17.394" height="8.919" transform="translate(405.176 85.438)" fill="#84c6f7"/>
  <rect id="Rectangle_211" data-name="Rectangle 211" width="19.814" height="3.401" transform="translate(364.258 90.955)" fill="#84c6f7"/>
  <rect id="Rectangle_212" data-name="Rectangle 212" width="19.814" height="3.401" transform="translate(187.08 98.632)" fill="#84c6f7"/>
  <rect id="Rectangle_213" data-name="Rectangle 213" width="15.038" height="3.401" transform="translate(266.503 109.921)" fill="#84c6f7"/>
  <rect id="Rectangle_214" data-name="Rectangle 214" width="12.901" height="1.701" transform="translate(190.537 96.931)" fill="#84c6f7"/>
  <rect id="Rectangle_215" data-name="Rectangle 215" width="9.508" height="1.701" transform="translate(364.258 89.254)" fill="#84c6f7"/>
  <rect id="Rectangle_216" data-name="Rectangle 216" width="19.142" height="1.028" transform="translate(404.301 84.41)" fill="#84c6f7"/>
  <rect id="Rectangle_217" data-name="Rectangle 217" width="66.598" height="3.103" transform="translate(4.676 13.972)" fill="#84c6f7"/>
  <rect id="Rectangle_218" data-name="Rectangle 218" width="17.394" height="8.918" transform="translate(941.263 7.915)" fill="#84c6f7"/>
  <rect id="Rectangle_219" data-name="Rectangle 219" width="19.142" height="1.028" transform="translate(940.389 6.887)" fill="#84c6f7"/>
  <rect id="Rectangle_220" data-name="Rectangle 220" width="40.659" height="3.103" transform="translate(920.06 16.834)" fill="#84c6f7"/>
  <rect id="Rectangle_221" data-name="Rectangle 221" width="64.153" height="3.103" transform="translate(279.276 42.308)" fill="#84c6f7"/>
  <rect id="Rectangle_222" data-name="Rectangle 222" width="66.397" height="3.103" transform="translate(358.726 94.356)" fill="#84c6f7"/>
  <rect id="Rectangle_223" data-name="Rectangle 223" width="18.069" height="3.103" transform="translate(509.536 67.358)" fill="#84c6f7"/>
  <g id="Group_90" data-name="Group 90" transform="translate(54.273 0)">
    <rect id="Rectangle_224" data-name="Rectangle 224" width="0.79" height="13.972" transform="translate(3.144)" fill="#84c6f7"/>
    <rect id="Rectangle_225" data-name="Rectangle 225" width="7.078" height="0.737" transform="translate(0 8.908)" fill="#84c6f7"/>
    <rect id="Rectangle_226" data-name="Rectangle 226" width="7.078" height="0.737" transform="translate(0 6.73)" fill="#84c6f7"/>
    <rect id="Rectangle_227" data-name="Rectangle 227" width="7.078" height="0.737" transform="translate(0 5.858)" fill="#84c6f7"/>
    <rect id="Rectangle_228" data-name="Rectangle 228" width="7.078" height="0.737" transform="translate(0 4.987)" fill="#84c6f7"/>
  </g>
  <g id="Group_91" data-name="Group 91" transform="translate(287.529 28.336)">
    <rect id="Rectangle_229" data-name="Rectangle 229" width="0.79" height="13.972" transform="translate(3.144)" fill="#84c6f7"/>
    <rect id="Rectangle_230" data-name="Rectangle 230" width="7.078" height="0.737" transform="translate(0 8.908)" fill="#84c6f7"/>
    <rect id="Rectangle_231" data-name="Rectangle 231" width="7.078" height="0.737" transform="translate(0 6.729)" fill="#84c6f7"/>
    <rect id="Rectangle_232" data-name="Rectangle 232" width="7.078" height="0.737" transform="translate(0 5.858)" fill="#84c6f7"/>
    <rect id="Rectangle_233" data-name="Rectangle 233" width="7.078" height="0.737" transform="translate(0 4.987)" fill="#84c6f7"/>
  </g>
  <g id="Group_92" data-name="Group 92" transform="translate(419.904 70.438)">
    <rect id="Rectangle_234" data-name="Rectangle 234" width="0.79" height="13.972" transform="translate(3.144)" fill="#84c6f7"/>
    <rect id="Rectangle_235" data-name="Rectangle 235" width="7.078" height="0.737" transform="translate(0 8.908)" fill="#84c6f7"/>
    <rect id="Rectangle_236" data-name="Rectangle 236" width="7.078" height="0.737" transform="translate(0 6.73)" fill="#84c6f7"/>
    <rect id="Rectangle_237" data-name="Rectangle 237" width="7.078" height="0.737" transform="translate(0 5.858)" fill="#84c6f7"/>
    <rect id="Rectangle_238" data-name="Rectangle 238" width="7.078" height="0.737" transform="translate(0 4.987)" fill="#84c6f7"/>
  </g>
  <path id="Path_23" data-name="Path 23" d="M1413.2,538.4V353.48H1375.2v95.536h-6.134V426.958H1317.21v13.366l-24.97,20.84H1282.6V388.69H1237.56V403.7h-52.917v3.662l-34.057,16.3v20.574h-10.68v-67.95h-42.246V478.747h-8.907V410.9h-62.1v20.36L1006.875,431l-26.791-27H962.015v46.152h-4.326V431H905.636V538.4Z" transform="translate(-452.479 -333.543)" fill="#84c6f7"/>
  <rect id="Rectangle_239" data-name="Rectangle 239" width="45.077" height="3.103" transform="translate(688.843 42.743) rotate(180)" fill="#84c6f7"/>
  <rect id="Rectangle_240" data-name="Rectangle 240" width="65.36" height="3.103" transform="translate(637.906 77.354) rotate(180)" fill="#84c6f7"/>
  <rect id="Rectangle_241" data-name="Rectangle 241" width="42.246" height="3.103" transform="translate(687.428 39.64) rotate(180)" fill="#84c6f7"/>
  <g id="Group_93" data-name="Group 93" transform="translate(743.128 46.243)">
    <rect id="Rectangle_242" data-name="Rectangle 242" width="0.79" height="16.32" transform="translate(3.934 16.32) rotate(180)" fill="#84c6f7"/>
    <rect id="Rectangle_243" data-name="Rectangle 243" width="7.078" height="0.737" transform="translate(7.078 9.645) rotate(180)" fill="#84c6f7"/>
    <rect id="Rectangle_244" data-name="Rectangle 244" width="7.078" height="0.737" transform="translate(7.078 7.467) rotate(180)" fill="#84c6f7"/>
    <rect id="Rectangle_245" data-name="Rectangle 245" width="7.078" height="0.737" transform="translate(7.078 6.595) rotate(180)" fill="#84c6f7"/>
    <rect id="Rectangle_246" data-name="Rectangle 246" width="7.078" height="0.737" transform="translate(7.078 5.724) rotate(180)" fill="#84c6f7"/>
  </g>
  <rect id="Rectangle_247" data-name="Rectangle 247" width="16.72" height="7.58" transform="translate(630.422 74.251) rotate(180)" fill="#84c6f7"/>
  <rect id="Rectangle_248" data-name="Rectangle 248" width="19.565" height="4.595" transform="translate(613.702 74.251) rotate(180)" fill="#84c6f7"/>
  <rect id="Rectangle_249" data-name="Rectangle 249" width="9.107" height="3.103" transform="translate(683.371 36.537) rotate(180)" fill="#84c6f7"/>
  <rect id="Rectangle_250" data-name="Rectangle 250" width="9.107" height="4.503" transform="translate(827.445 52.044) rotate(180)" fill="#84c6f7"/>
  <rect id="Rectangle_251" data-name="Rectangle 251" width="19.031" height="10.482" transform="translate(916.59 90.312) rotate(180)" fill="#84c6f7"/>
  <rect id="Rectangle_252" data-name="Rectangle 252" width="6.974" height="3.794" transform="translate(896.224 90.312) rotate(180)" fill="#84c6f7"/>
  <rect id="Rectangle_253" data-name="Rectangle 253" width="6.974" height="3.794" transform="translate(886.99 90.312) rotate(180)" fill="#84c6f7"/>
  <rect id="Rectangle_254" data-name="Rectangle 254" width="9.107" height="4.503" transform="translate(816.349 52.044) rotate(180)" fill="#84c6f7"/>
  <rect id="Rectangle_255" data-name="Rectangle 255" width="23.578" height="8.918" transform="translate(764.352 70.161) rotate(180)" fill="#84c6f7"/>
  <rect id="Rectangle_256" data-name="Rectangle 256" width="26.027" height="1.028" transform="translate(765.576 61.242) rotate(180)" fill="#84c6f7"/>
  <rect id="Rectangle_257" data-name="Rectangle 257" width="25.818" height="8.919" transform="translate(478.975 97.459) rotate(180)" fill="#84c6f7"/>
  <rect id="Rectangle_258" data-name="Rectangle 258" width="28.586" height="1.028" transform="translate(480.359 88.541) rotate(180)" fill="#84c6f7"/>
  <rect id="Rectangle_259" data-name="Rectangle 259" width="21.371" height="1.028" transform="translate(917.595 79.83) rotate(180)" fill="#84c6f7"/>
  <rect id="Rectangle_260" data-name="Rectangle 260" width="48.371" height="3.103" transform="translate(831.788 55.147) rotate(180)" fill="#84c6f7"/>
  <rect id="Rectangle_261" data-name="Rectangle 261" width="54.458" height="3.103" transform="translate(919.189 93.415) rotate(180)" fill="#84c6f7"/>
  <rect id="Rectangle_262" data-name="Rectangle 262" width="9.107" height="1.552" transform="translate(674.264 36.537) rotate(180)" fill="#84c6f7"/>
</svg>
