<svg id="Group_89" data-name="Group 89" xmlns="http://www.w3.org/2000/svg" width="960.718" height="148.753" viewBox="0 0 960.718 148.753">
  <path id="Path_18" data-name="Path 18" d="M0,470.987H35.388l15.521-12.57h5.359v73.7H60.2V486.268h58.555v11.575h20.426V451.835h53.575V573.817h3.253V514.2h12.113v-18.95h11.216V472.67H261.6V514.2h48.171l15.083-15.083h66.226v13.707H416.7V470.62l13.238-13.238h23.221V587.539H0Z" transform="translate(0 -438.785)" fill="#68b2e0"/>
  <rect id="Rectangle_140" data-name="Rectangle 140" width="23.578" height="8.919" transform="translate(145.819 1.028)" fill="#68b2e0"/>
  <rect id="Rectangle_141" data-name="Rectangle 141" width="26.027" height="1.028" transform="translate(144.594 0)" fill="#68b2e0"/>
  <rect id="Rectangle_142" data-name="Rectangle 142" width="23.578" height="8.919" transform="translate(450.404 9.678)" fill="#68b2e0"/>
  <rect id="Rectangle_143" data-name="Rectangle 143" width="26.027" height="1.028" transform="translate(449.18 8.65)" fill="#68b2e0"/>
  <rect id="Rectangle_144" data-name="Rectangle 144" width="13.587" height="8.919" transform="translate(0 23.283)" fill="#68b2e0"/>
  <rect id="Rectangle_145" data-name="Rectangle 145" width="14.812" height="1.028" transform="translate(0 22.255)" fill="#68b2e0"/>
  <rect id="Rectangle_146" data-name="Rectangle 146" width="57.493" height="3.103" transform="translate(137.224 9.946)" fill="#68b2e0"/>
  <rect id="Rectangle_147" data-name="Rectangle 147" width="44.18" height="3.103" transform="translate(217.415 30.781)" fill="#68b2e0"/>
  <rect id="Rectangle_148" data-name="Rectangle 148" width="62.286" height="3.103" transform="translate(58.336 44.38)" fill="#68b2e0"/>
  <rect id="Rectangle_149" data-name="Rectangle 149" width="10.442" height="3.951" transform="translate(175.781 5.995)" fill="#68b2e0"/>
  <rect id="Rectangle_150" data-name="Rectangle 150" width="19.938" height="3.951" transform="translate(65.514 40.429)" fill="#68b2e0"/>
  <rect id="Rectangle_151" data-name="Rectangle 151" width="12.662" height="1.861" transform="translate(65.514 38.568)" fill="#68b2e0"/>
  <path id="Path_19" data-name="Path 19" d="M723.545,540.116l-11.076-6.226H694.427v6.226Z" transform="translate(-346.954 -479.783)" fill="#68b2e0"/>
  <rect id="Rectangle_152" data-name="Rectangle 152" width="12.881" height="6.226" transform="translate(332.117 54.108)" fill="#68b2e0"/>
  <rect id="Rectangle_153" data-name="Rectangle 153" width="8.729" height="8.888" transform="translate(407.969 65.152)" fill="#68b2e0"/>
  <g id="Group_83" data-name="Group 83" transform="translate(249.862 16.809)">
    <rect id="Rectangle_154" data-name="Rectangle 154" width="0.79" height="16.32" transform="translate(3.144)" fill="#68b2e0"/>
    <rect id="Rectangle_155" data-name="Rectangle 155" width="7.078" height="0.737" transform="translate(0 8.908)" fill="#68b2e0"/>
    <rect id="Rectangle_156" data-name="Rectangle 156" width="7.078" height="0.737" transform="translate(0 6.729)" fill="#68b2e0"/>
    <rect id="Rectangle_157" data-name="Rectangle 157" width="7.078" height="0.737" transform="translate(0 5.858)" fill="#68b2e0"/>
    <rect id="Rectangle_158" data-name="Rectangle 158" width="7.078" height="0.737" transform="translate(0 4.987)" fill="#68b2e0"/>
  </g>
  <g id="Group_84" data-name="Group 84" transform="translate(479.066 4.624)">
    <rect id="Rectangle_159" data-name="Rectangle 159" width="0.79" height="13.972" transform="translate(3.144)" fill="#68b2e0"/>
    <rect id="Rectangle_160" data-name="Rectangle 160" width="7.078" height="0.737" transform="translate(0 8.908)" fill="#68b2e0"/>
    <rect id="Rectangle_161" data-name="Rectangle 161" width="7.078" height="0.737" transform="translate(0 6.729)" fill="#68b2e0"/>
    <rect id="Rectangle_162" data-name="Rectangle 162" width="7.078" height="0.737" transform="translate(0 5.858)" fill="#68b2e0"/>
    <rect id="Rectangle_163" data-name="Rectangle 163" width="7.078" height="0.737" transform="translate(0 4.987)" fill="#68b2e0"/>
  </g>
  <g id="Group_85" data-name="Group 85" transform="translate(106.206 30.408)">
    <rect id="Rectangle_164" data-name="Rectangle 164" width="0.79" height="16.32" transform="translate(3.144)" fill="#68b2e0"/>
    <rect id="Rectangle_165" data-name="Rectangle 165" width="7.078" height="0.737" transform="translate(0 8.908)" fill="#68b2e0"/>
    <rect id="Rectangle_166" data-name="Rectangle 166" width="7.078" height="0.737" transform="translate(0 6.729)" fill="#68b2e0"/>
    <rect id="Rectangle_167" data-name="Rectangle 167" width="7.078" height="0.737" transform="translate(0 5.858)" fill="#68b2e0"/>
    <rect id="Rectangle_168" data-name="Rectangle 168" width="7.078" height="0.737" transform="translate(0 4.987)" fill="#68b2e0"/>
  </g>
  <rect id="Rectangle_169" data-name="Rectangle 169" width="7.667" height="1.321" transform="translate(337.332 52.787)" fill="#68b2e0"/>
  <rect id="Rectangle_170" data-name="Rectangle 170" width="18.042" height="1.321" transform="translate(347.473 52.787)" fill="#68b2e0"/>
  <rect id="Rectangle_171" data-name="Rectangle 171" width="6.298" height="1.321" transform="translate(348.514 51.466)" fill="#68b2e0"/>
  <path id="Path_20" data-name="Path 20" d="M1358.793,470.987H1323.4l-15.521-12.57h-5.359v73.7h-3.934V486.268h-58.555v11.575H1219.61V451.835h-53.574V573.817h-3.254V514.2H1150.67V472.67H1097.2v17.4l-23.3,24.13h-24.868l-15.083-15.083H967.718v13.707H942.095V457.382H905.636V587.539H1413.2V455.947h-17.67l-.646,56.652Z" transform="translate(-452.479 -438.785)" fill="#68b2e0"/>
  <rect id="Rectangle_172" data-name="Rectangle 172" width="23.578" height="8.919" transform="translate(760.495 9.946) rotate(180)" fill="#68b2e0"/>
  <rect id="Rectangle_173" data-name="Rectangle 173" width="26.027" height="1.028" transform="translate(761.719 1.028) rotate(180)" fill="#68b2e0"/>
  <rect id="Rectangle_174" data-name="Rectangle 174" width="13.587" height="8.919" transform="translate(906.314 32.201) rotate(180)" fill="#68b2e0"/>
  <rect id="Rectangle_175" data-name="Rectangle 175" width="14.812" height="1.028" transform="translate(906.314 23.283) rotate(180)" fill="#68b2e0"/>
  <rect id="Rectangle_176" data-name="Rectangle 176" width="57.493" height="3.103" transform="translate(769.09 13.049) rotate(180)" fill="#68b2e0"/>
  <rect id="Rectangle_177" data-name="Rectangle 177" width="57.578" height="3.103" transform="translate(700.243 33.884) rotate(180)" fill="#68b2e0"/>
  <rect id="Rectangle_178" data-name="Rectangle 178" width="62.286" height="3.103" transform="translate(847.977 47.483) rotate(180)" fill="#68b2e0"/>
  <rect id="Rectangle_179" data-name="Rectangle 179" width="20.174" height="3.103" transform="translate(960.718 17.161) rotate(180)" fill="#68b2e0"/>
  <rect id="Rectangle_180" data-name="Rectangle 180" width="10.442" height="3.951" transform="translate(730.532 9.946) rotate(180)" fill="#68b2e0"/>
  <rect id="Rectangle_181" data-name="Rectangle 181" width="19.938" height="3.951" transform="translate(840.799 44.38) rotate(180)" fill="#68b2e0"/>
  <rect id="Rectangle_182" data-name="Rectangle 182" width="12.662" height="1.861" transform="translate(840.799 40.429) rotate(180)" fill="#68b2e0"/>
  <path id="Path_21" data-name="Path 21" d="M1058.652,540.116l11.076-6.226h18.042v6.226Z" transform="translate(-528.93 -479.783)" fill="#68b2e0"/>
  <rect id="Rectangle_183" data-name="Rectangle 183" width="12.881" height="6.226" transform="translate(561.315 54.108)" fill="#68b2e0"/>
  <rect id="Rectangle_184" data-name="Rectangle 184" width="8.728" height="8.888" transform="translate(489.616 65.152)" fill="#68b2e0"/>
  <g id="Group_86" data-name="Group 86" transform="translate(649.373 16.809)">
    <rect id="Rectangle_185" data-name="Rectangle 185" width="0.79" height="16.32" transform="translate(3.934 16.32) rotate(180)" fill="#68b2e0"/>
    <rect id="Rectangle_186" data-name="Rectangle 186" width="7.078" height="0.737" transform="translate(7.078 9.645) rotate(180)" fill="#68b2e0"/>
    <rect id="Rectangle_187" data-name="Rectangle 187" width="7.078" height="0.737" transform="translate(7.078 7.467) rotate(180)" fill="#68b2e0"/>
    <rect id="Rectangle_188" data-name="Rectangle 188" width="7.078" height="0.737" transform="translate(7.078 6.595) rotate(180)" fill="#68b2e0"/>
    <rect id="Rectangle_189" data-name="Rectangle 189" width="7.078" height="0.737" transform="translate(7.078 5.724) rotate(180)" fill="#68b2e0"/>
  </g>
  <g id="Group_87" data-name="Group 87" transform="translate(793.029 30.408)">
    <rect id="Rectangle_190" data-name="Rectangle 190" width="0.79" height="13.949" transform="translate(3.934 13.949) rotate(180)" fill="#68b2e0"/>
    <rect id="Rectangle_191" data-name="Rectangle 191" width="7.078" height="0.737" transform="translate(7.078 9.645) rotate(180)" fill="#68b2e0"/>
    <rect id="Rectangle_192" data-name="Rectangle 192" width="7.078" height="0.737" transform="translate(7.078 7.467) rotate(180)" fill="#68b2e0"/>
    <rect id="Rectangle_193" data-name="Rectangle 193" width="7.078" height="0.737" transform="translate(7.078 6.595) rotate(180)" fill="#68b2e0"/>
    <rect id="Rectangle_194" data-name="Rectangle 194" width="7.078" height="0.737" transform="translate(7.078 5.724) rotate(180)" fill="#68b2e0"/>
  </g>
  <g id="Group_88" data-name="Group 88" transform="translate(947.108 0.109)">
    <rect id="Rectangle_195" data-name="Rectangle 195" width="0.79" height="13.949" transform="translate(3.934 13.949) rotate(180)" fill="#68b2e0"/>
    <rect id="Rectangle_196" data-name="Rectangle 196" width="7.078" height="0.737" transform="translate(7.078 9.645) rotate(180)" fill="#68b2e0"/>
    <rect id="Rectangle_197" data-name="Rectangle 197" width="7.078" height="0.737" transform="translate(7.078 7.467) rotate(180)" fill="#68b2e0"/>
    <rect id="Rectangle_198" data-name="Rectangle 198" width="7.078" height="0.737" transform="translate(7.078 6.595) rotate(180)" fill="#68b2e0"/>
    <rect id="Rectangle_199" data-name="Rectangle 199" width="7.078" height="0.737" transform="translate(7.078 5.724) rotate(180)" fill="#68b2e0"/>
  </g>
  <rect id="Rectangle_200" data-name="Rectangle 200" width="7.667" height="1.321" transform="translate(568.982 54.108) rotate(180)" fill="#68b2e0"/>
  <rect id="Rectangle_201" data-name="Rectangle 201" width="18.042" height="1.321" transform="translate(558.84 54.108) rotate(180)" fill="#68b2e0"/>
  <rect id="Rectangle_202" data-name="Rectangle 202" width="6.298" height="1.321" transform="translate(557.799 52.787) rotate(180)" fill="#68b2e0"/>
</svg>
