<svg xmlns="http://www.w3.org/2000/svg" width="29.72" height="20.897" viewBox="0 0 29.72 20.897">
  <path id="Path_25" data-name="Path 25" d="M29.313,80.341a1.161,1.161,0,0,0-1.262-.161L21.7,83.273,15.737,76.4a1.161,1.161,0,0,0-1.754,0L8.022,83.273,1.669,80.18A1.161,1.161,0,0,0,.05,81.562L4.462,96.074a1.161,1.161,0,0,0,1.111.823H24.148a1.161,1.161,0,0,0,1.111-.823L29.67,81.562A1.161,1.161,0,0,0,29.313,80.341ZM23.287,94.575H6.433L3.046,83.433l4.761,2.318a1.161,1.161,0,0,0,1.385-.283l5.668-6.535,5.668,6.535a1.161,1.161,0,0,0,1.385.283l4.761-2.318Z" transform="translate(0 -76)" fill="#fff"/>
</svg>
