<svg id="Group_82" data-name="Group 82" xmlns="http://www.w3.org/2000/svg" width="972.359" height="202.58" viewBox="0 0 972.359 202.58">
  <path id="Path_15" data-name="Path 15" d="M0,642.774V613.06H51.859v13.366l24.97,16.347h9.637V574.792h45.043v15.014h52.917v3.662l34.057,16.3v20.574h10.68v-67.95h42.246v80.386h8.907V597h62.1v20.36l46.573-41.483h18.069v60.382h4.326V617.1h52.052v25.669Z" transform="translate(0 -484.749)" fill="#4b9bc4"/>
  <rect id="Rectangle_61" data-name="Rectangle 61" width="45.076" height="3.103" transform="translate(227.747 74.536)" fill="#4b9bc4"/>
  <rect id="Rectangle_62" data-name="Rectangle 62" width="65.36" height="3.103" transform="translate(278.684 109.148)" fill="#4b9bc4"/>
  <rect id="Rectangle_63" data-name="Rectangle 63" width="42.246" height="3.103" transform="translate(229.162 71.433)" fill="#4b9bc4"/>
  <g id="Group_76" data-name="Group 76" transform="translate(166.383 81.139)">
    <rect id="Rectangle_64" data-name="Rectangle 64" width="0.79" height="16.32" transform="translate(3.144)" fill="#4b9bc4"/>
    <rect id="Rectangle_65" data-name="Rectangle 65" width="7.078" height="0.737" transform="translate(0 8.908)" fill="#4b9bc4"/>
    <rect id="Rectangle_66" data-name="Rectangle 66" width="7.078" height="0.737" transform="translate(0 6.73)" fill="#4b9bc4"/>
    <rect id="Rectangle_67" data-name="Rectangle 67" width="7.078" height="0.737" transform="translate(0 5.858)" fill="#4b9bc4"/>
    <rect id="Rectangle_68" data-name="Rectangle 68" width="7.078" height="0.737" transform="translate(0 4.987)" fill="#4b9bc4"/>
  </g>
  <g id="Group_77" data-name="Group 77" transform="translate(399.774 77.156)">
    <rect id="Rectangle_69" data-name="Rectangle 69" width="0.79" height="13.972" transform="translate(3.144)" fill="#4b9bc4"/>
    <rect id="Rectangle_70" data-name="Rectangle 70" width="7.078" height="0.737" transform="translate(0 8.908)" fill="#4b9bc4"/>
    <rect id="Rectangle_71" data-name="Rectangle 71" width="7.078" height="0.737" transform="translate(0 6.73)" fill="#4b9bc4"/>
    <rect id="Rectangle_72" data-name="Rectangle 72" width="7.078" height="0.737" transform="translate(0 5.858)" fill="#4b9bc4"/>
    <rect id="Rectangle_73" data-name="Rectangle 73" width="7.078" height="0.737" transform="translate(0 4.987)" fill="#4b9bc4"/>
  </g>
  <rect id="Rectangle_74" data-name="Rectangle 74" width="16.72" height="7.58" transform="translate(286.168 101.568)" fill="#4b9bc4"/>
  <rect id="Rectangle_75" data-name="Rectangle 75" width="19.565" height="4.595" transform="translate(302.888 104.552)" fill="#4b9bc4"/>
  <rect id="Rectangle_76" data-name="Rectangle 76" width="9.107" height="3.103" transform="translate(233.219 68.33)" fill="#4b9bc4"/>
  <rect id="Rectangle_77" data-name="Rectangle 77" width="9.107" height="4.503" transform="translate(89.145 82.437)" fill="#4b9bc4"/>
  <rect id="Rectangle_78" data-name="Rectangle 78" width="19.031" height="10.482" transform="translate(0 114.727)" fill="#4b9bc4"/>
  <rect id="Rectangle_79" data-name="Rectangle 79" width="6.974" height="3.794" transform="translate(20.366 121.414)" fill="#4b9bc4"/>
  <rect id="Rectangle_80" data-name="Rectangle 80" width="6.974" height="3.794" transform="translate(29.599 121.414)" fill="#4b9bc4"/>
  <rect id="Rectangle_81" data-name="Rectangle 81" width="9.107" height="4.503" transform="translate(100.241 82.437)" fill="#4b9bc4"/>
  <rect id="Rectangle_82" data-name="Rectangle 82" width="23.578" height="8.918" transform="translate(152.238 96.139)" fill="#4b9bc4"/>
  <rect id="Rectangle_83" data-name="Rectangle 83" width="26.027" height="1.028" transform="translate(151.014 95.111)" fill="#4b9bc4"/>
  <rect id="Rectangle_84" data-name="Rectangle 84" width="25.818" height="8.919" transform="translate(437.615 123.437)" fill="#4b9bc4"/>
  <rect id="Rectangle_85" data-name="Rectangle 85" width="27.043" height="1.028" transform="translate(436.39 122.409)" fill="#4b9bc4"/>
  <rect id="Rectangle_86" data-name="Rectangle 86" width="20.366" height="1.028" transform="translate(0 113.699)" fill="#4b9bc4"/>
  <rect id="Rectangle_87" data-name="Rectangle 87" width="48.371" height="3.103" transform="translate(84.802 86.94)" fill="#4b9bc4"/>
  <rect id="Rectangle_88" data-name="Rectangle 88" width="53.907" height="3.103" transform="translate(0 125.209)" fill="#4b9bc4"/>
  <rect id="Rectangle_89" data-name="Rectangle 89" width="9.107" height="1.551" transform="translate(242.326 69.882)" fill="#4b9bc4"/>
  <path id="Path_16" data-name="Path 16" d="M1372.536,441.35h-62.362v69.434l-15.646,13.972v25.217h-96.2V526.308h-72V537.6h-28.535V469.686h-59.625v81.65h-19.805v-29.6H945.885l-19.712,17.005V582.3h497.285V475.951H1379.33v55.083h-6.794Z" transform="translate(-462.74 -424.275)" fill="#4b9bc4"/>
  <rect id="Rectangle_90" data-name="Rectangle 90" width="17.394" height="8.919" transform="translate(903.811 13.972) rotate(180)" fill="#4b9bc4"/>
  <rect id="Rectangle_91" data-name="Rectangle 91" width="8.367" height="3.914" transform="translate(884.042 13.972) rotate(180)" fill="#4b9bc4"/>
  <rect id="Rectangle_92" data-name="Rectangle 92" width="8.367" height="3.914" transform="translate(610.323 42.308) rotate(180)" fill="#4b9bc4"/>
  <rect id="Rectangle_93" data-name="Rectangle 93" width="19.142" height="1.028" transform="translate(904.685 5.054) rotate(180)" fill="#4b9bc4"/>
  <rect id="Rectangle_94" data-name="Rectangle 94" width="17.394" height="8.919" transform="translate(599.549 42.308) rotate(180)" fill="#4b9bc4"/>
  <rect id="Rectangle_95" data-name="Rectangle 95" width="19.142" height="1.028" transform="translate(600.424 33.389) rotate(180)" fill="#4b9bc4"/>
  <rect id="Rectangle_96" data-name="Rectangle 96" width="17.394" height="8.919" transform="translate(511.414 94.356) rotate(180)" fill="#4b9bc4"/>
  <rect id="Rectangle_97" data-name="Rectangle 97" width="19.814" height="3.401" transform="translate(552.332 94.356) rotate(180)" fill="#4b9bc4"/>
  <rect id="Rectangle_98" data-name="Rectangle 98" width="19.814" height="3.401" transform="translate(729.509 102.033) rotate(180)" fill="#4b9bc4"/>
  <rect id="Rectangle_99" data-name="Rectangle 99" width="15.038" height="3.401" transform="translate(650.087 113.322) rotate(180)" fill="#4b9bc4"/>
  <rect id="Rectangle_100" data-name="Rectangle 100" width="12.901" height="1.701" transform="translate(726.053 98.632) rotate(180)" fill="#4b9bc4"/>
  <rect id="Rectangle_101" data-name="Rectangle 101" width="9.508" height="1.701" transform="translate(552.332 90.955) rotate(180)" fill="#4b9bc4"/>
  <rect id="Rectangle_102" data-name="Rectangle 102" width="19.814" height="3.401" transform="translate(431.194 132.356) rotate(180)" fill="#4b9bc4"/>
  <rect id="Rectangle_103" data-name="Rectangle 103" width="15.428" height="2.371" transform="translate(460.639 122.409) rotate(180)" fill="#4b9bc4"/>
  <rect id="Rectangle_104" data-name="Rectangle 104" width="9.508" height="1.701" transform="translate(428.881 128.955) rotate(180)" fill="#4b9bc4"/>
  <rect id="Rectangle_105" data-name="Rectangle 105" width="19.142" height="1.028" transform="translate(512.288 85.438) rotate(180)" fill="#4b9bc4"/>
  <rect id="Rectangle_106" data-name="Rectangle 106" width="17.394" height="8.918" transform="translate(686.503 102.033) rotate(180)" fill="#4b9bc4"/>
  <rect id="Rectangle_107" data-name="Rectangle 107" width="19.142" height="1.028" transform="translate(687.377 93.115) rotate(180)" fill="#4b9bc4"/>
  <rect id="Rectangle_108" data-name="Rectangle 108" width="66.598" height="3.103" transform="translate(911.914 17.075) rotate(180)" fill="#4b9bc4"/>
  <rect id="Rectangle_109" data-name="Rectangle 109" width="13.702" height="8.918" transform="translate(960.718 48.573) rotate(180)" fill="#4b9bc4"/>
  <rect id="Rectangle_110" data-name="Rectangle 110" width="14.576" height="1.028" transform="translate(960.718 39.655) rotate(180)" fill="#4b9bc4"/>
  <rect id="Rectangle_111" data-name="Rectangle 111" width="46.303" height="3.103" transform="translate(960.718 51.676) rotate(180)" fill="#4b9bc4"/>
  <rect id="Rectangle_112" data-name="Rectangle 112" width="64.153" height="3.103" transform="translate(637.313 45.411) rotate(180)" fill="#4b9bc4"/>
  <rect id="Rectangle_113" data-name="Rectangle 113" width="66.398" height="3.103" transform="translate(557.864 97.459) rotate(180)" fill="#4b9bc4"/>
  <g id="Group_78" data-name="Group 78" transform="translate(855.238 0)">
    <rect id="Rectangle_114" data-name="Rectangle 114" width="0.79" height="13.972" transform="translate(3.934 13.972) rotate(180)" fill="#4b9bc4"/>
    <rect id="Rectangle_115" data-name="Rectangle 115" width="7.078" height="0.737" transform="translate(7.078 9.645) rotate(180)" fill="#4b9bc4"/>
    <rect id="Rectangle_116" data-name="Rectangle 116" width="7.078" height="0.737" transform="translate(7.078 7.467) rotate(180)" fill="#4b9bc4"/>
    <rect id="Rectangle_117" data-name="Rectangle 117" width="7.078" height="0.737" transform="translate(7.078 6.595) rotate(180)" fill="#4b9bc4"/>
    <rect id="Rectangle_118" data-name="Rectangle 118" width="7.078" height="0.737" transform="translate(7.078 5.724) rotate(180)" fill="#4b9bc4"/>
  </g>
  <g id="Group_79" data-name="Group 79" transform="translate(621.983 28.336)">
    <rect id="Rectangle_119" data-name="Rectangle 119" width="0.79" height="13.972" transform="translate(3.934 13.972) rotate(180)" fill="#4b9bc4"/>
    <rect id="Rectangle_120" data-name="Rectangle 120" width="7.078" height="0.737" transform="translate(7.078 9.645) rotate(180)" fill="#4b9bc4"/>
    <rect id="Rectangle_121" data-name="Rectangle 121" width="7.078" height="0.737" transform="translate(7.078 7.467) rotate(180)" fill="#4b9bc4"/>
    <rect id="Rectangle_122" data-name="Rectangle 122" width="7.078" height="0.737" transform="translate(7.078 6.595) rotate(180)" fill="#4b9bc4"/>
    <rect id="Rectangle_123" data-name="Rectangle 123" width="7.078" height="0.737" transform="translate(7.078 5.724) rotate(180)" fill="#4b9bc4"/>
  </g>
  <g id="Group_80" data-name="Group 80" transform="translate(762.089 111.726)">
    <rect id="Rectangle_124" data-name="Rectangle 124" width="0.79" height="13.972" transform="translate(3.934 13.972) rotate(180)" fill="#4b9bc4"/>
    <rect id="Rectangle_125" data-name="Rectangle 125" width="7.078" height="0.737" transform="translate(7.078 9.645) rotate(180)" fill="#4b9bc4"/>
    <rect id="Rectangle_126" data-name="Rectangle 126" width="7.078" height="0.737" transform="translate(7.078 7.467) rotate(180)" fill="#4b9bc4"/>
    <rect id="Rectangle_127" data-name="Rectangle 127" width="7.078" height="0.737" transform="translate(7.078 6.595) rotate(180)" fill="#4b9bc4"/>
    <rect id="Rectangle_128" data-name="Rectangle 128" width="7.078" height="0.737" transform="translate(7.078 5.724) rotate(180)" fill="#4b9bc4"/>
  </g>
  <g id="Group_81" data-name="Group 81" transform="translate(523.622 80.384)">
    <rect id="Rectangle_129" data-name="Rectangle 129" width="0.79" height="13.972" transform="translate(3.934 13.972) rotate(180)" fill="#4b9bc4"/>
    <rect id="Rectangle_130" data-name="Rectangle 130" width="7.078" height="0.737" transform="translate(7.078 9.645) rotate(180)" fill="#4b9bc4"/>
    <rect id="Rectangle_131" data-name="Rectangle 131" width="7.078" height="0.737" transform="translate(7.078 7.467) rotate(180)" fill="#4b9bc4"/>
    <rect id="Rectangle_132" data-name="Rectangle 132" width="7.078" height="0.737" transform="translate(7.078 6.596) rotate(180)" fill="#4b9bc4"/>
    <rect id="Rectangle_133" data-name="Rectangle 133" width="7.078" height="0.737" transform="translate(7.078 5.724) rotate(180)" fill="#4b9bc4"/>
  </g>
  <path id="Path_17" data-name="Path 17" d="M1616.965,650.7l-13.776-7.743h-22.439V650.7Z" transform="translate(-789.784 -525.004)" fill="#4b9bc4"/>
  <rect id="Rectangle_134" data-name="Rectangle 134" width="16.021" height="7.743" transform="translate(771.868 117.955)" fill="#4b9bc4"/>
  <rect id="Rectangle_135" data-name="Rectangle 135" width="9.535" height="1.643" transform="translate(778.354 116.312)" fill="#4b9bc4"/>
  <rect id="Rectangle_136" data-name="Rectangle 136" width="16.021" height="7.743" transform="translate(735.588 117.955)" fill="#4b9bc4"/>
  <rect id="Rectangle_137" data-name="Rectangle 137" width="9.535" height="1.643" transform="translate(735.588 116.312)" fill="#4b9bc4"/>
  <rect id="Rectangle_138" data-name="Rectangle 138" width="22.439" height="1.643" transform="translate(790.967 116.312)" fill="#4b9bc4"/>
  <rect id="Rectangle_139" data-name="Rectangle 139" width="7.833" height="1.643" transform="translate(792.261 114.669)" fill="#4b9bc4"/>
  <rect id="Rectangle_263" data-name="Rectangle 263" width="972" height="52" transform="translate(0.359 150.58)" fill="#4b9bc4"/>
</svg>
