<svg xmlns="http://www.w3.org/2000/svg" width="213.202" height="84" viewBox="0 0 213.202 84">
  <g id="DOKO" transform="translate(-192.754 -92.089)">
    <text id="D" transform="translate(192.754 161.089)" fill="#4b4b4b" font-size="69.975" font-family="Lato-Light, Lato" font-weight="300"><tspan x="0" y="0">D</tspan></text>
    <text id="OK" transform="translate(245.443 161.089)" fill="#4b4b4b" font-size="69.975" font-family="Lato-Bold, Lato" font-weight="700"><tspan x="0" y="0">OK</tspan></text>
    <g id="Group_17" data-name="Group 17">
      <path id="Path_3" data-name="Path 3" d="M394.79,115.658a75.707,75.707,0,0,1-2.419,8.315,17.755,17.755,0,1,1-24.409.062,75.955,75.955,0,0,1-2.428-8.322,25.754,25.754,0,1,0,29.256-.055Z" fill="#4b4b4b"/>
      <path id="Path_4" data-name="Path 4" d="M380.156,95.756c-6.771,0-12.279,6.848-12.279,15.266a17.042,17.042,0,0,0,.345,3.055,61.367,61.367,0,0,0,2.239,7.961c2.748,8.043,6.792,16.885,7.46,18.331a2.446,2.446,0,0,0,1.684,1.349,1.941,1.941,0,0,0,1.1,0,2.448,2.448,0,0,0,1.683-1.349c.669-1.449,4.726-10.321,7.475-18.376a60.716,60.716,0,0,0,2.23-7.958,16.858,16.858,0,0,0,.339-3.013C392.435,102.6,386.927,95.756,380.156,95.756Zm-5.22,24.153a43.8,43.8,0,0,1-2.046-7.734,9.544,9.544,0,0,1-.09-1.153c0-5.606,3.369-10.342,7.356-10.342s7.355,4.736,7.355,10.342a9.487,9.487,0,0,1-.086,1.129,43.512,43.512,0,0,1-2.043,7.737c-1.5,4.415-3.525,9.42-5.226,13.381C378.457,129.314,376.432,124.319,374.936,119.909Z" fill="#4b4b4b"/>
    </g>
  </g>
</svg>
