<svg xmlns="http://www.w3.org/2000/svg" width="25.285" height="27.2" viewBox="0 0 25.285 27.2">
  <g id="logout" transform="translate(-16.719 0.5)">
    <g id="Group_39" data-name="Group 39" transform="translate(17.219)">
      <path id="Path_7" data-name="Path 7" d="M28.918,24.7H22.084a3.368,3.368,0,0,1-3.364-3.364V4.865A3.368,3.368,0,0,1,22.084,1.5h6.945a.751.751,0,1,0,0-1.5H22.084a4.871,4.871,0,0,0-4.865,4.865v16.47A4.871,4.871,0,0,0,22.084,26.2h6.834a.751.751,0,1,0,0-1.5Z" transform="translate(-17.219)" fill="#707070" stroke="#707070" stroke-width="1"/>
      <path id="Path_8" data-name="Path 8" d="M138.84,141.317l-4.771-4.771a.751.751,0,0,0-1.062,1.062L136.5,141.1H121.27a.751.751,0,0,0,0,1.5H136.5l-3.492,3.492a.753.753,0,0,0,.528,1.284.732.732,0,0,0,.528-.222l4.771-4.771A.75.75,0,0,0,138.84,141.317Z" transform="translate(-114.775 -128.745)" fill="#707070" stroke="#707070" stroke-width="1"/>
    </g>
  </g>
</svg>
