<svg xmlns="http://www.w3.org/2000/svg" width="15.429" height="16.286" viewBox="0 0 15.429 16.286">
  <g id="tack" transform="translate(0 -6)">
    <g id="Group_74" data-name="Group 74" transform="translate(0 6)">
      <g id="Group_73" data-name="Group 73">
        <path id="Path_14" data-name="Path 14" d="M172,179.687v-3.879h.857a.857.857,0,0,0,.857-.857v-3.429a.857.857,0,0,0-.857-.857H162.571a.857.857,0,0,0-.857.857v3.429a.857.857,0,0,0,.857.857h.857v3.879A7.741,7.741,0,0,0,160,186.094a.857.857,0,0,0,.857.857h13.714a.857.857,0,0,0,.857-.857A7.741,7.741,0,0,0,172,179.687Zm-10.223,5.55a6.03,6.03,0,0,1,2.937-4.334.857.857,0,0,0,.429-.741v-5.211a.857.857,0,0,0-.857-.857h-.857v-1.714H172v1.714h-.857a.857.857,0,0,0-.857.857v5.211a.857.857,0,0,0,.429.741,6.03,6.03,0,0,1,2.937,4.334H161.777Z" transform="translate(-160 -170.665)" fill="#f57db7"/>
      </g>
    </g>
    <rect id="Rectangle_59" data-name="Rectangle 59" width="4.339" height="1.688" rx="0.844" transform="translate(2.759 9.402)" fill="#f57db7"/>
  </g>
</svg>
