<svg xmlns="http://www.w3.org/2000/svg" width="485.148" height="191" viewBox="0 0 485.148 191">
  <g id="DOKO" transform="translate(-192.754 -92.089)">
    <text id="D" transform="translate(192.754 248.089)" fill="#4b9bc4" font-size="158" font-family="Lato-Light, Lato" font-weight="300"><tspan x="0" y="0">D</tspan></text>
    <text id="OK" transform="translate(312.65 249.089)" fill="#4b9bc4" font-size="159" font-family="Lato-Bold, Lato" font-weight="700"><tspan x="0" y="0">OK</tspan></text>
    <g id="doko-logo" data-name="Doko logo" transform="translate(560.684 100.434)">
      <path id="Path_3" data-name="Path 3" d="M446.253,115.658a172.284,172.284,0,0,1-5.5,18.921,40.4,40.4,0,1,1-55.543.141,172.837,172.837,0,0,1-5.525-18.937,58.6,58.6,0,1,0,66.573-.125Z" transform="translate(-354.444 -70.37)" fill="#4b9bc4"/>
      <path id="Path_4" data-name="Path 4" d="M395.818,95.756c-15.408,0-27.941,15.583-27.941,34.738a38.78,38.78,0,0,0,.785,6.952,139.647,139.647,0,0,0,5.095,18.115c6.253,18.3,15.455,38.422,16.975,41.713a5.566,5.566,0,0,0,3.832,3.07,4.417,4.417,0,0,0,2.51,0,5.572,5.572,0,0,0,3.83-3.07c1.522-3.3,10.754-23.486,17.01-41.815a138.165,138.165,0,0,0,5.074-18.109,38.36,38.36,0,0,0,.771-6.856C423.759,111.339,411.226,95.756,395.818,95.756ZM383.94,150.717c-2.344-6.915-4.1-13.171-4.656-17.6a21.709,21.709,0,0,1-.2-2.624c0-12.757,7.666-23.534,16.739-23.534s16.736,10.777,16.736,23.534a21.58,21.58,0,0,1-.2,2.569c-.544,4.419-2.3,10.681-4.649,17.606-3.406,10.046-8.021,21.435-11.892,30.449C391.952,172.118,387.344,160.752,383.94,150.717Z" transform="translate(-337.31 -95.756)" fill="#4b9bc4"/>
    </g>
  </g>
</svg>
