<svg xmlns="http://www.w3.org/2000/svg" width="2277.559" height="625.825" viewBox="0 0 2277.559 625.825">
  <g id="Group_108" data-name="Group 108" transform="translate(321.27 -454.175)">
    <circle id="Ellipse_45" data-name="Ellipse 45" cx="312.911" cy="312.911" r="312.911" transform="translate(1224.95 454.175)" fill="#ffe8be"/>
    <rect id="Rectangle_284" data-name="Rectangle 284" width="2277" height="65" transform="translate(-321 1015)" fill="#4b9bc4"/>
    <g id="Group_94" data-name="Group 94" transform="translate(0 611.149)">
      <path id="Path_22" data-name="Path 22" d="M13.834,347.761H140.82V489.148L172.68,517.6v51.348H368.571V520.759h146.62v22.988h58.1V405.46H694.707V571.721h40.329V511.445H922.753V730.133H0V530.382H13.834Z" transform="translate(0 -312.991)" fill="#84c6f7"/>
      <rect id="Rectangle_203" data-name="Rectangle 203" width="35.418" height="18.161" transform="translate(26.022 10.29)" fill="#84c6f7"/>
      <rect id="Rectangle_204" data-name="Rectangle 204" width="17.038" height="7.97" transform="translate(66.277 20.481)" fill="#84c6f7"/>
      <rect id="Rectangle_205" data-name="Rectangle 205" width="17.038" height="7.97" transform="translate(1892.715 26.309)" fill="#84c6f7"/>
      <rect id="Rectangle_206" data-name="Rectangle 206" width="17.038" height="7.97" transform="translate(623.644 78.18)" fill="#84c6f7"/>
      <rect id="Rectangle_207" data-name="Rectangle 207" width="38.979" height="2.093" transform="translate(24.242 8.197)" fill="#84c6f7"/>
      <rect id="Rectangle_208" data-name="Rectangle 208" width="35.418" height="18.161" transform="translate(645.583 67.99)" fill="#84c6f7"/>
      <rect id="Rectangle_209" data-name="Rectangle 209" width="38.979" height="2.093" transform="translate(643.802 65.896)" fill="#84c6f7"/>
      <rect id="Rectangle_210" data-name="Rectangle 210" width="35.418" height="18.161" transform="translate(825.05 173.975)" fill="#84c6f7"/>
      <rect id="Rectangle_211" data-name="Rectangle 211" width="40.346" height="6.926" transform="translate(741.73 185.21)" fill="#84c6f7"/>
      <rect id="Rectangle_212" data-name="Rectangle 212" width="40.346" height="6.926" transform="translate(380.948 200.842)" fill="#84c6f7"/>
      <rect id="Rectangle_213" data-name="Rectangle 213" width="30.622" height="6.926" transform="translate(542.673 223.83)" fill="#84c6f7"/>
      <rect id="Rectangle_214" data-name="Rectangle 214" width="26.269" height="3.463" transform="translate(387.986 197.379)" fill="#84c6f7"/>
      <rect id="Rectangle_215" data-name="Rectangle 215" width="19.36" height="3.463" transform="translate(741.73 181.747)" fill="#84c6f7"/>
      <rect id="Rectangle_216" data-name="Rectangle 216" width="38.979" height="2.093" transform="translate(823.27 171.882)" fill="#84c6f7"/>
      <rect id="Rectangle_217" data-name="Rectangle 217" width="135.612" height="6.319" transform="translate(9.521 28.451)" fill="#84c6f7"/>
      <rect id="Rectangle_218" data-name="Rectangle 218" width="35.418" height="18.16" transform="translate(1916.673 16.118)" fill="#84c6f7"/>
      <rect id="Rectangle_219" data-name="Rectangle 219" width="38.979" height="2.093" transform="translate(1914.893 14.025)" fill="#84c6f7"/>
      <rect id="Rectangle_220" data-name="Rectangle 220" width="82.792" height="6.319" transform="translate(1873.497 34.278)" fill="#84c6f7"/>
      <rect id="Rectangle_221" data-name="Rectangle 221" width="130.634" height="6.319" transform="translate(568.684 86.15)" fill="#84c6f7"/>
      <rect id="Rectangle_222" data-name="Rectangle 222" width="135.204" height="6.319" transform="translate(730.466 192.135)" fill="#84c6f7"/>
      <rect id="Rectangle_223" data-name="Rectangle 223" width="36.794" height="6.319" transform="translate(1037.556 137.16)" fill="#84c6f7"/>
      <g id="Group_90" data-name="Group 90" transform="translate(110.515 0)">
        <rect id="Rectangle_224" data-name="Rectangle 224" width="1.609" height="28.451" transform="translate(6.402)" fill="#84c6f7"/>
        <rect id="Rectangle_225" data-name="Rectangle 225" width="14.413" height="1.501" transform="translate(0 18.139)" fill="#84c6f7"/>
        <rect id="Rectangle_226" data-name="Rectangle 226" width="14.413" height="1.501" transform="translate(0 13.703)" fill="#84c6f7"/>
        <rect id="Rectangle_227" data-name="Rectangle 227" width="14.413" height="1.501" transform="translate(0 11.929)" fill="#84c6f7"/>
        <rect id="Rectangle_228" data-name="Rectangle 228" width="14.413" height="1.501" transform="translate(0 10.155)" fill="#84c6f7"/>
      </g>
      <g id="Group_91" data-name="Group 91" transform="translate(585.489 57.699)">
        <rect id="Rectangle_229" data-name="Rectangle 229" width="1.609" height="28.451" transform="translate(6.402)" fill="#84c6f7"/>
        <rect id="Rectangle_230" data-name="Rectangle 230" width="14.413" height="1.501" transform="translate(0 18.139)" fill="#84c6f7"/>
        <rect id="Rectangle_231" data-name="Rectangle 231" width="14.413" height="1.501" transform="translate(0 13.703)" fill="#84c6f7"/>
        <rect id="Rectangle_232" data-name="Rectangle 232" width="14.413" height="1.501" transform="translate(0 11.929)" fill="#84c6f7"/>
        <rect id="Rectangle_233" data-name="Rectangle 233" width="14.413" height="1.501" transform="translate(0 10.155)" fill="#84c6f7"/>
      </g>
      <g id="Group_92" data-name="Group 92" transform="translate(855.042 143.431)">
        <rect id="Rectangle_234" data-name="Rectangle 234" width="1.609" height="28.451" transform="translate(6.402)" fill="#84c6f7"/>
        <rect id="Rectangle_235" data-name="Rectangle 235" width="14.413" height="1.501" transform="translate(0 18.139)" fill="#84c6f7"/>
        <rect id="Rectangle_236" data-name="Rectangle 236" width="14.413" height="1.501" transform="translate(0 13.703)" fill="#84c6f7"/>
        <rect id="Rectangle_237" data-name="Rectangle 237" width="14.413" height="1.501" transform="translate(0 11.929)" fill="#84c6f7"/>
        <rect id="Rectangle_238" data-name="Rectangle 238" width="14.413" height="1.501" transform="translate(0 10.155)" fill="#84c6f7"/>
      </g>
      <path id="Path_23" data-name="Path 23" d="M1939.172,730.025V353.48H1861.8V548.019h-12.491V503.1h-105.6V530.32l-50.846,42.436h-19.623V425.177h-91.72V455.75H1473.773v7.457l-69.35,33.183v41.894h-21.746V399.919h-86.025v208.64h-18.138V470.4H1152.068v41.458l-40.281-.518-54.553-54.976h-36.794V550.34h-8.81v-39H905.636V730.025Z" transform="translate(17.117 -312.883)" fill="#84c6f7"/>
      <rect id="Rectangle_239" data-name="Rectangle 239" width="91.788" height="6.319" transform="translate(1402.676 87.036) rotate(180)" fill="#84c6f7"/>
      <rect id="Rectangle_240" data-name="Rectangle 240" width="133.091" height="6.319" transform="translate(1298.954 157.514) rotate(180)" fill="#84c6f7"/>
      <rect id="Rectangle_241" data-name="Rectangle 241" width="86.025" height="6.319" transform="translate(1399.794 80.717) rotate(180)" fill="#84c6f7"/>
      <g id="Group_93" data-name="Group 93" transform="translate(1513.215 94.163)">
        <rect id="Rectangle_242" data-name="Rectangle 242" width="1.609" height="33.232" transform="translate(8.011 33.232) rotate(180)" fill="#84c6f7"/>
        <rect id="Rectangle_243" data-name="Rectangle 243" width="14.413" height="1.501" transform="translate(14.413 19.64) rotate(180)" fill="#84c6f7"/>
        <rect id="Rectangle_244" data-name="Rectangle 244" width="14.413" height="1.501" transform="translate(14.413 15.204) rotate(180)" fill="#84c6f7"/>
        <rect id="Rectangle_245" data-name="Rectangle 245" width="14.413" height="1.501" transform="translate(14.413 13.43) rotate(180)" fill="#84c6f7"/>
        <rect id="Rectangle_246" data-name="Rectangle 246" width="14.413" height="1.501" transform="translate(14.413 11.656) rotate(180)" fill="#84c6f7"/>
      </g>
      <rect id="Rectangle_247" data-name="Rectangle 247" width="34.047" height="15.435" transform="translate(1283.715 151.196) rotate(180)" fill="#84c6f7"/>
      <rect id="Rectangle_248" data-name="Rectangle 248" width="39.841" height="9.357" transform="translate(1249.667 151.196) rotate(180)" fill="#84c6f7"/>
      <rect id="Rectangle_249" data-name="Rectangle 249" width="18.545" height="6.319" transform="translate(1391.533 74.399) rotate(180)" fill="#84c6f7"/>
      <rect id="Rectangle_250" data-name="Rectangle 250" width="18.545" height="9.169" transform="translate(1684.907 105.975) rotate(180)" fill="#84c6f7"/>
      <rect id="Rectangle_251" data-name="Rectangle 251" width="38.752" height="21.344" transform="translate(1866.432 183.9) rotate(180)" fill="#84c6f7"/>
      <rect id="Rectangle_252" data-name="Rectangle 252" width="14.201" height="7.726" transform="translate(1824.961 183.9) rotate(180)" fill="#84c6f7"/>
      <rect id="Rectangle_253" data-name="Rectangle 253" width="14.201" height="7.726" transform="translate(1806.159 183.9) rotate(180)" fill="#84c6f7"/>
      <rect id="Rectangle_254" data-name="Rectangle 254" width="18.545" height="9.169" transform="translate(1662.314 105.975) rotate(180)" fill="#84c6f7"/>
      <rect id="Rectangle_255" data-name="Rectangle 255" width="48.011" height="18.16" transform="translate(1556.433 142.867) rotate(180)" fill="#84c6f7"/>
      <rect id="Rectangle_256" data-name="Rectangle 256" width="52.998" height="2.093" transform="translate(1558.926 124.707) rotate(180)" fill="#84c6f7"/>
      <rect id="Rectangle_257" data-name="Rectangle 257" width="52.573" height="18.161" transform="translate(975.326 198.454) rotate(180)" fill="#84c6f7"/>
      <rect id="Rectangle_258" data-name="Rectangle 258" width="58.21" height="2.093" transform="translate(978.145 180.293) rotate(180)" fill="#84c6f7"/>
      <rect id="Rectangle_259" data-name="Rectangle 259" width="43.518" height="2.093" transform="translate(1868.479 162.556) rotate(180)" fill="#84c6f7"/>
      <rect id="Rectangle_260" data-name="Rectangle 260" width="98.496" height="6.319" transform="translate(1693.752 112.294) rotate(180)" fill="#84c6f7"/>
      <rect id="Rectangle_261" data-name="Rectangle 261" width="110.891" height="6.319" transform="translate(1871.724 190.219) rotate(180)" fill="#84c6f7"/>
      <rect id="Rectangle_262" data-name="Rectangle 262" width="18.545" height="3.159" transform="translate(1372.989 74.399) rotate(180)" fill="#84c6f7"/>
    </g>
    <g id="Group_89" data-name="Group 89" transform="translate(0 733.284)">
      <path id="Path_18" data-name="Path 18" d="M0,490.833H72.06l31.6-25.6h10.913V615.3h8.01V521.951H241.821v23.571h41.593V451.835H392.507v248.39h6.625V578.832H423.8V540.245h22.839V494.26H532.68v84.572h98.089l30.714-30.714H796.338V576.03h52.175V490.087L875.47,463.13h47.284V728.166H0Z" transform="translate(0 -425.263)" fill="#68b2e0"/>
      <rect id="Rectangle_140" data-name="Rectangle 140" width="48.011" height="18.161" transform="translate(296.928 2.093)" fill="#68b2e0"/>
      <rect id="Rectangle_141" data-name="Rectangle 141" width="52.998" height="2.093" transform="translate(294.434 0)" fill="#68b2e0"/>
      <rect id="Rectangle_142" data-name="Rectangle 142" width="48.011" height="18.161" transform="translate(917.149 19.706)" fill="#68b2e0"/>
      <rect id="Rectangle_143" data-name="Rectangle 143" width="52.998" height="2.093" transform="translate(914.656 17.613)" fill="#68b2e0"/>
      <rect id="Rectangle_144" data-name="Rectangle 144" width="27.667" height="18.161" transform="translate(0 47.41)" fill="#68b2e0"/>
      <rect id="Rectangle_145" data-name="Rectangle 145" width="30.16" height="2.093" transform="translate(0 45.317)" fill="#68b2e0"/>
      <rect id="Rectangle_146" data-name="Rectangle 146" width="117.071" height="6.319" transform="translate(279.425 20.254)" fill="#68b2e0"/>
      <rect id="Rectangle_147" data-name="Rectangle 147" width="89.963" height="6.319" transform="translate(442.717 62.679)" fill="#68b2e0"/>
      <rect id="Rectangle_148" data-name="Rectangle 148" width="126.831" height="6.319" transform="translate(118.789 90.37)" fill="#68b2e0"/>
      <rect id="Rectangle_149" data-name="Rectangle 149" width="21.262" height="8.046" transform="translate(357.94 12.208)" fill="#68b2e0"/>
      <rect id="Rectangle_150" data-name="Rectangle 150" width="40.598" height="8.046" transform="translate(133.405 82.324)" fill="#68b2e0"/>
      <rect id="Rectangle_151" data-name="Rectangle 151" width="25.782" height="3.789" transform="translate(133.405 78.535)" fill="#68b2e0"/>
      <path id="Path_19" data-name="Path 19" d="M753.719,546.568l-22.554-12.677H694.427v12.677Z" transform="translate(13.125 -423.712)" fill="#68b2e0"/>
      <rect id="Rectangle_152" data-name="Rectangle 152" width="26.23" height="12.677" transform="translate(676.283 110.179)" fill="#68b2e0"/>
      <rect id="Rectangle_153" data-name="Rectangle 153" width="17.774" height="18.099" transform="translate(830.739 132.669)" fill="#68b2e0"/>
      <g id="Group_83" data-name="Group 83" transform="translate(508.789 34.228)">
        <rect id="Rectangle_154" data-name="Rectangle 154" width="1.609" height="33.232" transform="translate(6.402)" fill="#68b2e0"/>
        <rect id="Rectangle_155" data-name="Rectangle 155" width="14.413" height="1.501" transform="translate(0 18.139)" fill="#68b2e0"/>
        <rect id="Rectangle_156" data-name="Rectangle 156" width="14.413" height="1.501" transform="translate(0 13.703)" fill="#68b2e0"/>
        <rect id="Rectangle_157" data-name="Rectangle 157" width="14.413" height="1.501" transform="translate(0 11.929)" fill="#68b2e0"/>
        <rect id="Rectangle_158" data-name="Rectangle 158" width="14.413" height="1.501" transform="translate(0 10.155)" fill="#68b2e0"/>
      </g>
      <g id="Group_84" data-name="Group 84" transform="translate(975.511 9.416)">
        <rect id="Rectangle_159" data-name="Rectangle 159" width="1.609" height="28.451" transform="translate(6.402)" fill="#68b2e0"/>
        <rect id="Rectangle_160" data-name="Rectangle 160" width="14.413" height="1.501" transform="translate(0 18.139)" fill="#68b2e0"/>
        <rect id="Rectangle_161" data-name="Rectangle 161" width="14.413" height="1.501" transform="translate(0 13.703)" fill="#68b2e0"/>
        <rect id="Rectangle_162" data-name="Rectangle 162" width="14.413" height="1.501" transform="translate(0 11.929)" fill="#68b2e0"/>
        <rect id="Rectangle_163" data-name="Rectangle 163" width="14.413" height="1.501" transform="translate(0 10.155)" fill="#68b2e0"/>
      </g>
      <g id="Group_85" data-name="Group 85" transform="translate(216.265 61.919)">
        <rect id="Rectangle_164" data-name="Rectangle 164" width="1.609" height="33.232" transform="translate(6.402)" fill="#68b2e0"/>
        <rect id="Rectangle_165" data-name="Rectangle 165" width="14.413" height="1.501" transform="translate(0 18.139)" fill="#68b2e0"/>
        <rect id="Rectangle_166" data-name="Rectangle 166" width="14.413" height="1.501" transform="translate(0 13.703)" fill="#68b2e0"/>
        <rect id="Rectangle_167" data-name="Rectangle 167" width="14.413" height="1.501" transform="translate(0 11.929)" fill="#68b2e0"/>
        <rect id="Rectangle_168" data-name="Rectangle 168" width="14.413" height="1.501" transform="translate(0 10.155)" fill="#68b2e0"/>
      </g>
      <rect id="Rectangle_169" data-name="Rectangle 169" width="15.611" height="2.69" transform="translate(686.902 107.489)" fill="#68b2e0"/>
      <rect id="Rectangle_170" data-name="Rectangle 170" width="36.738" height="2.69" transform="translate(707.552 107.489)" fill="#68b2e0"/>
      <rect id="Rectangle_171" data-name="Rectangle 171" width="12.824" height="2.69" transform="translate(709.672 104.798)" fill="#68b2e0"/>
      <path id="Path_20" data-name="Path 20" d="M1828.389,490.833h-72.06l-31.6-25.6h-10.913V615.3h-8.01V521.951H1586.568v23.571h-41.593V451.835H1435.882v248.39h-6.625V578.832h-24.665V494.26H1295.709V529.7l-47.451,49.136H1197.62l-30.714-30.714H1032.051V576.03H979.877V463.13H905.636V728.166H1939.172V460.208h-35.98l-1.317,115.359Z" transform="translate(17.117 -425.263)" fill="#68b2e0"/>
      <rect id="Rectangle_172" data-name="Rectangle 172" width="48.011" height="18.161" transform="translate(1548.579 20.254) rotate(180)" fill="#68b2e0"/>
      <rect id="Rectangle_173" data-name="Rectangle 173" width="52.998" height="2.093" transform="translate(1551.072 2.093) rotate(180)" fill="#68b2e0"/>
      <rect id="Rectangle_174" data-name="Rectangle 174" width="27.667" height="18.161" transform="translate(1845.507 65.571) rotate(180)" fill="#68b2e0"/>
      <rect id="Rectangle_175" data-name="Rectangle 175" width="30.16" height="2.093" transform="translate(1845.507 47.41) rotate(180)" fill="#68b2e0"/>
      <rect id="Rectangle_176" data-name="Rectangle 176" width="117.071" height="6.319" transform="translate(1566.081 26.572) rotate(180)" fill="#68b2e0"/>
      <rect id="Rectangle_177" data-name="Rectangle 177" width="117.244" height="6.319" transform="translate(1425.89 68.998) rotate(180)" fill="#68b2e0"/>
      <rect id="Rectangle_178" data-name="Rectangle 178" width="126.831" height="6.319" transform="translate(1726.718 96.688) rotate(180)" fill="#68b2e0"/>
      <rect id="Rectangle_179" data-name="Rectangle 179" width="41.079" height="6.319" transform="translate(1956.289 34.945) rotate(180)" fill="#68b2e0"/>
      <rect id="Rectangle_180" data-name="Rectangle 180" width="21.262" height="8.046" transform="translate(1487.567 20.254) rotate(180)" fill="#68b2e0"/>
      <rect id="Rectangle_181" data-name="Rectangle 181" width="40.598" height="8.046" transform="translate(1712.101 90.37) rotate(180)" fill="#68b2e0"/>
      <rect id="Rectangle_182" data-name="Rectangle 182" width="25.782" height="3.789" transform="translate(1712.101 82.324) rotate(180)" fill="#68b2e0"/>
      <path id="Path_21" data-name="Path 21" d="M1058.652,546.568l22.554-12.677h36.738v12.677Z" transform="translate(20.009 -423.712)" fill="#68b2e0"/>
      <rect id="Rectangle_183" data-name="Rectangle 183" width="26.23" height="12.677" transform="translate(1142.994 110.179)" fill="#68b2e0"/>
      <rect id="Rectangle_184" data-name="Rectangle 184" width="17.774" height="18.099" transform="translate(996.994 132.669)" fill="#68b2e0"/>
      <g id="Group_86" data-name="Group 86" transform="translate(1322.304 34.228)">
        <rect id="Rectangle_185" data-name="Rectangle 185" width="1.609" height="33.232" transform="translate(8.011 33.232) rotate(180)" fill="#68b2e0"/>
        <rect id="Rectangle_186" data-name="Rectangle 186" width="14.413" height="1.501" transform="translate(14.413 19.64) rotate(180)" fill="#68b2e0"/>
        <rect id="Rectangle_187" data-name="Rectangle 187" width="14.413" height="1.501" transform="translate(14.413 15.204) rotate(180)" fill="#68b2e0"/>
        <rect id="Rectangle_188" data-name="Rectangle 188" width="14.413" height="1.501" transform="translate(14.413 13.43) rotate(180)" fill="#68b2e0"/>
        <rect id="Rectangle_189" data-name="Rectangle 189" width="14.413" height="1.501" transform="translate(14.413 11.656) rotate(180)" fill="#68b2e0"/>
      </g>
      <g id="Group_87" data-name="Group 87" transform="translate(1614.828 61.919)">
        <rect id="Rectangle_190" data-name="Rectangle 190" width="1.609" height="28.405" transform="translate(8.011 28.405) rotate(180)" fill="#68b2e0"/>
        <rect id="Rectangle_191" data-name="Rectangle 191" width="14.413" height="1.501" transform="translate(14.413 19.64) rotate(180)" fill="#68b2e0"/>
        <rect id="Rectangle_192" data-name="Rectangle 192" width="14.413" height="1.501" transform="translate(14.413 15.204) rotate(180)" fill="#68b2e0"/>
        <rect id="Rectangle_193" data-name="Rectangle 193" width="14.413" height="1.501" transform="translate(14.413 13.43) rotate(180)" fill="#68b2e0"/>
        <rect id="Rectangle_194" data-name="Rectangle 194" width="14.413" height="1.501" transform="translate(14.413 11.656) rotate(180)" fill="#68b2e0"/>
      </g>
      <g id="Group_88" data-name="Group 88" transform="translate(1928.574 0.222)">
        <rect id="Rectangle_195" data-name="Rectangle 195" width="1.609" height="28.405" transform="translate(8.011 28.405) rotate(180)" fill="#68b2e0"/>
        <rect id="Rectangle_196" data-name="Rectangle 196" width="14.413" height="1.501" transform="translate(14.413 19.64) rotate(180)" fill="#68b2e0"/>
        <rect id="Rectangle_197" data-name="Rectangle 197" width="14.413" height="1.501" transform="translate(14.413 15.204) rotate(180)" fill="#68b2e0"/>
        <rect id="Rectangle_198" data-name="Rectangle 198" width="14.413" height="1.501" transform="translate(14.413 13.43) rotate(180)" fill="#68b2e0"/>
        <rect id="Rectangle_199" data-name="Rectangle 199" width="14.413" height="1.501" transform="translate(14.413 11.656) rotate(180)" fill="#68b2e0"/>
      </g>
      <rect id="Rectangle_200" data-name="Rectangle 200" width="15.611" height="2.69" transform="translate(1158.605 110.179) rotate(180)" fill="#68b2e0"/>
      <rect id="Rectangle_201" data-name="Rectangle 201" width="36.738" height="2.69" transform="translate(1137.954 110.179) rotate(180)" fill="#68b2e0"/>
      <rect id="Rectangle_202" data-name="Rectangle 202" width="12.824" height="2.69" transform="translate(1135.835 107.489) rotate(180)" fill="#68b2e0"/>
    </g>
    <path id="Path_15" data-name="Path 15" d="M0,687.971v-46.42H81.017v20.882l39.009,25.538h15.055V581.766H205.45v23.456h82.669v5.721L341.324,636.4v32.142h16.684V562.388h66V687.971h13.916V616.46h97.011v31.807l72.758-64.807h28.229v94.332h6.759V647.869H724v40.1Z" transform="translate(455.406 351.948)" fill="#4b9bc4"/>
    <path id="Path_16" data-name="Path 16" d="M1623.5,441.35h-97.426V549.824l-24.443,21.828v39.395h-150.29V574.076H1238.859v17.637h-44.578v-106.1h-93.148V613.175h-30.941V566.93H956.968L926.173,593.5V661.55h776.885V495.406h-68.94v86.053H1623.5Z" transform="translate(253.232 378.37)" fill="#4b9bc4"/>
    <path id="Path_26" data-name="Path 26" d="M1623.5,441.35h-97.426V549.824l-24.443,21.828v39.395h-150.29V574.076H1238.859v17.637h-44.578v-106.1h-93.148V613.175h-30.941V566.93H956.968L926.173,593.5V661.55h776.885V495.406h-68.94v86.053H1623.5Z" transform="translate(-1247.443 378.37)" fill="#4b9bc4"/>
  </g>
</svg>
