<?xml version="1.0" standalone="no"?>
<!DOCTYPE svg PUBLIC "-//W3C//DTD SVG 20010904//EN"
 "http://www.w3.org/TR/2001/REC-SVG-20010904/DTD/svg10.dtd">
<svg version="1.0" xmlns="http://www.w3.org/2000/svg"
 width="470.000000pt" height="470.000000pt" viewBox="0 0 470.000000 470.000000"
 preserveAspectRatio="xMidYMid meet">
<metadata>
Created by potrace 1.11, written by Peter Selinger 2001-2013
</metadata>
<g transform="translate(0.000000,470.000000) scale(0.100000,-0.100000)"
fill="#000000" stroke="none">
<path d="M2168 4674 c-246 -66 -445 -247 -572 -517 -110 -235 -138 -496 -83
-767 45 -220 179 -642 302 -945 4 -11 9 -24 11 -30 3 -12 140 -351 154 -380 5
-11 35 -78 65 -150 149 -345 162 -367 224 -399 61 -32 123 -26 185 17 22 16
85 125 101 177 3 10 24 58 73 165 28 61 93 215 145 342 285 691 426 1154 432
1418 9 379 -157 750 -423 947 -63 47 -195 110 -267 128 -27 7 -97 14 -155 15
-84 2 -122 -2 -192 -21z m293 -340 c225 -72 399 -373 400 -692 0 -48 -2 -97
-5 -108 -2 -12 -7 -38 -10 -59 -21 -133 -184 -651 -255 -810 -5 -11 -24 -58
-41 -105 -18 -47 -38 -98 -45 -115 -7 -16 -34 -82 -60 -145 -25 -63 -55 -134
-66 -157 -10 -24 -19 -47 -19 -52 0 -6 -4 -12 -9 -15 -4 -3 -27 41 -51 97 -23
56 -57 138 -76 182 -179 431 -342 917 -381 1135 -10 58 -10 241 0 302 20 128
92 291 167 381 80 98 184 163 278 174 26 3 48 7 50 8 6 6 79 -7 123 -21z"/>
<path d="M3357 3233 c-24 -108 -53 -208 -101 -359 -26 -78 -46 -146 -46 -151
0 -5 25 -36 56 -68 106 -114 220 -307 267 -450 45 -138 62 -255 61 -425 -4
-594 -470 -1120 -1069 -1206 -83 -11 -275 -11 -355 2 -222 35 -454 136 -605
263 -215 182 -357 405 -424 666 -27 107 -31 140 -36 275 -10 325 105 627 336
884 24 27 44 52 44 55 0 3 -18 60 -39 126 -21 66 -46 145 -56 175 -9 30 -28
100 -40 155 -13 55 -27 104 -31 109 -8 9 -146 -95 -219 -166 -282 -275 -481
-649 -535 -1008 -4 -25 -11 -70 -15 -100 -9 -55 -6 -387 3 -425 3 -11 8 -42
11 -70 4 -27 18 -93 31 -145 95 -378 307 -712 610 -960 200 -163 447 -289 686
-350 175 -45 257 -55 454 -55 221 0 363 21 565 86 185 59 450 204 591 325 326
279 540 633 618 1020 32 161 33 172 36 340 5 309 -50 558 -182 834 -38 78
-157 267 -211 334 -97 119 -263 275 -362 339 l-27 17 -16 -67z"/>
</g>
</svg>
